<svg xmlns="http://www.w3.org/2000/svg" version="1.1" xmlns:xlink="http://www.w3.org/1999/xlink" xmlns:svgjs="http://svgjs.dev/svgjs" width="1000" height="854" viewBox="0 0 1000 854"><g transform="matrix(1,0,0,1,1.4617071263907633,-1.2083191489360274)"><svg viewBox="0 0 165 141" data-background-color="#ffffff" preserveAspectRatio="xMidYMid meet" height="854" width="1000" xmlns="http://www.w3.org/2000/svg" xmlns:xlink="http://www.w3.org/1999/xlink"><g id="tight-bounds" transform="matrix(1,0,0,1,-0.24118167585447736,0.19949999999997203)"><svg viewBox="0 0 165.48236335170895 140.60052000000002" height="140.60052000000002" width="165.48236335170895"><g><svg viewBox="0 0 165.48236335170895 140.60052000000002" height="140.60052000000002" width="165.48236335170895"><g><svg viewBox="0 0 165.48236335170895 140.60052000000002" height="140.60052000000002" width="165.48236335170895"><g><path d="M0 140.601v-140.601h165.482v140.601z" fill="#ed3b43" stroke="transparent" stroke-width="0" rx="0%" data-fill-palette-color="tertiary"></path><path d="M3.283 137.317v-134.034h158.916v134.034z" fill="#ffffff" stroke="transparent" stroke-width="0" rx="0%" data-fill-palette-color="quaternary"></path><path d="M9.85 130.751v-120.901h145.782v120.901z" fill="#ed3b43" stroke="transparent" stroke-width="0" data-fill-palette-color="tertiary"></path></g><g transform="matrix(1,0,0,1,19.69974,19.69974)" id="textblocktransform"><svg viewBox="0 0 126.08288335170896 101.20104000000002" height="101.20104000000002" width="126.08288335170896" id="textblock"><g><svg viewBox="0 0 126.08288335170896 101.20104000000002" height="101.20104000000002" width="126.08288335170896"><g transform="matrix(1,0,0,1,0,0)"><svg width="126.08288335170896" viewBox="1.15 -36 56.5 45.35" height="101.20104000000002" data-palette-color="#ffffff"><path d="M12.75 9.35L12.75 9.35Q9.9 9.35 7.88 8.15 5.85 6.95 5.85 4.65L5.85 4.65Q5.85 3.35 6.58 2.38 7.3 1.4 8.85 0.9L8.85 0.9Q8.65 1.65 8.55 2.35 8.45 3.05 8.45 3.6L8.45 3.6Q8.45 5.65 9.55 6.88 10.65 8.1 12.8 8.1L12.8 8.1Q14.8 8.1 16.38 7.1 17.95 6.1 19.1 4.48 20.25 2.85 21.05 0.95 21.85-0.95 22.4-2.8 22.95-4.65 23.25-6.05L23.25-6.05Q23.65-7.75 24.18-10.48 24.7-13.2 25.35-16.3L25.35-16.3Q23.35-12.5 20.73-10.03 18.1-7.55 14.5-7.55L14.5-7.55Q11.55-7.55 10.3-9.22 9.05-10.9 9.05-13.5L9.05-13.5Q9.05-15.45 9.58-17.75 10.1-20.05 10.75-22.38 11.4-24.7 11.93-26.85 12.45-29 12.45-30.7L12.45-30.7Q12.45-32.3 11.83-33.45 11.2-34.6 9.6-34.6L9.6-34.6Q8.2-34.6 7.2-33.73 6.2-32.85 5.53-31.5 4.85-30.15 4.53-28.68 4.2-27.2 4.2-25.95L4.2-25.95Q4.2-25.25 4.3-24.6 4.4-23.95 4.6-23.5L4.6-23.5Q2.7-23.5 1.93-24.53 1.15-25.55 1.15-26.95L1.15-26.95Q1.15-28.5 1.9-30.1 2.65-31.7 3.98-33.02 5.3-34.35 7.03-35.18 8.75-36 10.7-36L10.7-36Q12.6-36 13.75-35.23 14.9-34.45 15.4-33.3 15.9-32.15 15.9-30.95L15.9-30.95Q15.9-29.55 15.38-27.48 14.85-25.4 14.2-23.1L14.2-23.1Q13.55-20.85 13.05-18.6 12.55-16.35 12.55-14.35L12.55-14.35Q12.55-12.2 13.38-10.88 14.2-9.55 16.05-9.55L16.05-9.55Q17.8-9.55 19.35-10.65 20.9-11.75 22.25-13.6 23.6-15.45 24.7-17.65 25.8-19.85 26.65-22L26.65-22Q27.3-24.7 28.03-27.23 28.75-29.75 29.5-31.73 30.25-33.7 31.05-34.85 31.85-36 32.65-36L32.65-36Q33.15-36 33.95-35.58 34.75-35.15 35.45-34.4L35.45-34.4Q34.4-32.75 33.65-31.28 32.9-29.8 32.23-28.05 31.55-26.3 30.85-23.93 30.15-21.55 29.28-18.1 28.4-14.65 27.2-9.7L27.2-9.7Q26.55-7.15 25.8-4.45 25.05-1.75 23.98 0.7 22.9 3.15 21.4 5.1 19.9 7.05 17.78 8.2 15.65 9.35 12.75 9.35ZM43.2 4.35L43.2 4.35Q40.5 4.35 38.1 3.38 35.7 2.4 34.22 0.4 32.75-1.6 32.75-4.6L32.75-4.6Q32.75-7.2 33.77-8.65 34.8-10.1 36.3-10.7 37.8-11.3 39.15-11.3L39.15-11.3Q37.8-9.85 37.1-8.1 36.4-6.35 36.4-4.6L36.4-4.6Q36.4-2.75 37.22-1.15 38.05 0.45 39.75 1.43 41.45 2.4 44.05 2.4L44.05 2.4Q46.3 2.4 48.45 1.58 50.6 0.75 51.97-0.88 53.35-2.5 53.35-4.9L53.35-4.9Q53.35-7.05 52.25-8.6 51.15-10.15 49.42-11.35 47.7-12.55 45.75-13.65 43.8-14.75 42.07-15.98 40.35-17.2 39.25-18.8 38.15-20.4 38.15-22.65L38.15-22.65Q38.15-24.75 39.15-27.05 40.15-29.35 42.02-31.4 43.9-33.45 46.52-34.73 49.15-36 52.4-36L52.4-36Q55.35-36 56.5-34.58 57.65-33.15 57.65-31L57.65-31Q57.65-29.2 57.02-27.13 56.4-25.05 55.5-23.18 54.6-21.3 53.8-20L53.8-20Q52.9-20.2 52.52-20.78 52.15-21.35 52.15-22.15L52.15-22.15Q52.15-23.2 52.6-24.55 53.05-25.9 53.62-27.35 54.2-28.8 54.65-30.18 55.1-31.55 55.1-32.65L55.1-32.65Q55.1-33.65 54.5-34.23 53.9-34.8 52.3-34.8L52.3-34.8Q49.95-34.8 47.95-33.7 45.95-32.6 44.45-30.88 42.95-29.15 42.12-27.25 41.3-25.35 41.3-23.8L41.3-23.8Q41.3-21.95 42.37-20.63 43.45-19.3 45.15-18.23 46.85-17.15 48.77-16.07 50.7-15 52.4-13.7 54.1-12.4 55.17-10.63 56.25-8.85 56.25-6.3L56.25-6.3Q56.25-3.7 55.1-1.73 53.95 0.25 52.02 1.6 50.1 2.95 47.8 3.65 45.5 4.35 43.2 4.35Z" opacity="1" transform="matrix(1,0,0,1,0,0)" fill="#ffffff" class="wordmark-text-0" data-fill-palette-color="quaternary" id="text-0"></path></svg></g></svg></g></svg></g></svg></g><g></g></svg></g><defs></defs></svg><rect width="165.48236335170895" height="140.60052000000002" fill="none" stroke="none" visibility="hidden"></rect></g></svg></g></svg>